PathFileType	4	(X/Y/Z)	pose_F01_0-89.trc
DataRate	CameraRate	NumFrames	NumMarkers	Units	OrigDataRate	OrigDataStartFrame	OrigNumFrames
30	30	10	21	m	30	0	89
Frame#	Time	CHip			RHip			RKnee			RAnkle			RBigToe			RSmallToe			RHeel			LHip			LKnee			LAnkle			LBigToe			LSmallToe			LHeel			Neck			Nose			RShoulder			RElbow			RWrist			LShoulder			LElbow			LWrist			
		X1	Y1	Z1	X2	Y2	Z2	X3	Y3	Z3	X4	Y4	Z4	X5	Y5	Z5	X6	Y6	Z6	X7	Y7	Z7	X8	Y8	Z8	X9	Y9	Z9	X10	Y10	Z10	X11	Y11	Z11	X12	Y12	Z12	X13	Y13	Z13	X14	Y14	Z14	X15	Y15	Z15	X16	Y16	Z16	X17	Y17	Z17	X18	Y18	Z18	X19	Y19	Z19	X20	Y20	Z20	X21	Y21	Z21	
0	0.0	-0.24478481855527356	1.9088430482860221	-0.5597810673258647	-0.25896947611043797	1.9067006371615667	-0.49159180434922956	-0.2856139153089606	1.7109868074303856	-0.40207966612319435													-0.22647159155492902	1.9061194487402793	-0.6282827297858107	-0.2472679511587189	1.72515970689519	-0.600410409990498	-0.21728595850439283	1.6087675146493727	-0.692668347894545										-0.2294555861465855	2.070284184156591	-0.6421165706134263	-0.21616691826548842	2.1275899996019283	-0.6217458161156207	-0.2786268544997	2.06508909825291	-0.524507786326313	-17.92686094246466	0.7832307030505514	18.48517206625286	-0.2910915638387986	1.9583427665596844	-0.4617651684285422	-0.2310490908723346	2.0608335760894128	-0.7098923407009766	-0.1909223865255913	1.9682536721432926	-0.7257490377104652	-0.21706276192514082	1.8799547238470855	-0.7354376019388768
1	0.03333333333333333	-0.24547981998259938	1.9066215310977157	-0.5625005926995046	-0.25974947649396996	1.904488289851536	-0.4943417610937779	-0.2856139153089606	1.7109868074303856	-0.40207966612319435													-0.22712509426786784	1.9044264659549637	-0.6311069670899375	-0.2472679511587189	1.72515970689519	-0.600410409990498	-0.21728595850439283	1.6087675146493727	-0.692668347894545										-0.23157995548765486	2.0690987618737235	-0.6401126801077184	-0.21817719594150733	2.1273767288754906	-0.6196704603146587	-0.27877402605569446	2.0639431045432177	-0.5245015125956698	-16.56975376661993	0.8738439083193905	17.0249254681539	-0.2910872460711855	1.9519623730603242	-0.46088901981965263	-0.23109606475251773	2.0608358463611287	-0.7099151470378037	-0.1936535300939462	1.9683311889783501	-0.7263223379267739	-0.21706276192514082	1.8799547238470855	-0.7354376019388768
2	0.06666666666666667	-0.2461748214099252	1.9044000139094093	-0.5652201180731444	-0.26052947687750194	1.9022759425415054	-0.4970917178383263	-0.2856139153089606	1.7109868074303856	-0.40207966612319435													-0.22777859698080666	1.902733483169648	-0.6339312043940644	-0.2472679511587189	1.72515970689519	-0.600410409990498	-0.21728595850439283	1.6087675146493727	-0.692668347894545										-0.23370432482872422	2.067913339590856	-0.6381087896020105	-0.22018747361752625	2.127163458149053	-0.6175951045136966	-0.27892119761168893	2.0627971108335252	-0.5244952388650266	-15.212646590775194	0.9644571135882296	15.56467887005494	-0.29108292830357246	1.945581979560964	-0.46001287121076306	-0.23114303863270086	2.0608381166328447	-0.7099379533746307	-0.1963846736623011	1.9684087058134077	-0.7268956381430827	-0.21706276192514082	1.8799547238470855	-0.7354376019388768
3	0.1	-0.246869822837251	1.9021784967211028	-0.5679396434467843	-0.26130947726103393	1.9000635952314748	-0.49984167458287465	-0.2856139153089606	1.7109868074303856	-0.40207966612319435													-0.22843209969374548	1.9010405003843325	-0.6367554416981912	-0.2472679511587189	1.72515970689519	-0.600410409990498	-0.21728595850439283	1.6087675146493727	-0.692668347894545										-0.23582869416979357	2.066727917307989	-0.6361048990963025	-0.22219775129354516	2.126950187422615	-0.6155197487127345	-0.2790683691676834	2.0616511171238328	-0.5244889651343834	-13.855539414930458	1.0550703188570687	14.104432271955982	-0.2910786105359594	1.9392015860616036	-0.4591367226018735	-0.23119001251288399	2.0608403869045606	-0.7099607597114578	-0.19911581723065602	1.9684862226484652	-0.7274689383593914	-0.21706276192514082	1.8799547238470855	-0.7354376019388768
4	0.13333333333333333	-0.24756482426457682	1.8999569795327964	-0.5706591688204241	-0.2620894776445659	1.8978512479214442	-0.502591631327423	-0.2856139153089606	1.7109868074303856	-0.40207966612319435													-0.2290856024066843	1.8993475175990169	-0.639579679002318	-0.2472679511587189	1.72515970689519	-0.600410409990498	-0.21728595850439283	1.6087675146493727	-0.692668347894545										-0.23795306351086293	2.0655424950251215	-0.6341010085905946	-0.22420802896956407	2.1267369166961774	-0.6134443929117724	-0.2792155407236779	2.0605051234141403	-0.5244826914037402	-12.498432239085727	1.1456835241259078	12.644185673857022	-0.29107429276834634	1.9328211925622434	-0.4582605739929839	-0.2312369863930671	2.0608426571762766	-0.7099835660482848	-0.20184696079901093	1.9685637394835227	-0.7280422385757002	-0.21706276192514082	1.8799547238470855	-0.7354376019388768
5	0.16666666666666666	-0.24825982569190264	1.89773546234449	-0.573378694194064	-0.2628694780280979	1.8956389006114136	-0.5053415880719714	-0.2856139153089606	1.7109868074303856	-0.40207966612319435													-0.22973910511962312	1.8976545348137013	-0.6424039163064449	-0.2472679511587189	1.72515970689519	-0.600410409990498	-0.21728595850439283	1.6087675146493727	-0.692668347894545										-0.24007743285193228	2.064357072742254	-0.6320971180848867	-0.22621830664558298	2.1265236459697396	-0.6113690371108104	-0.27936271227967235	2.059359129704448	-0.5244764176730969	-11.141325063240991	1.2362967293947469	11.183939075758062	-0.2910699750007333	1.9264407990628831	-0.45738442538409435	-0.23128396027325024	2.0608449274479925	-0.7100063723851119	-0.20457810436736584	1.9686412563185802	-0.7286155387920089	-0.21706276192514082	1.8799547238470855	-0.7354376019388768
6	0.2	-0.24895482711922845	1.8955139451561835	-0.5760982195677038	-0.2636494784116299	1.893426553301383	-0.5080915448165197	-0.2856139153089606	1.7109868074303856	-0.40207966612319435													-0.23039260783256194	1.8959615520283857	-0.6452281536105717	-0.2472679511587189	1.72515970689519	-0.600410409990498	-0.21728595850439283	1.6087675146493727	-0.692668347894545										-0.24220180219300164	2.063171650459387	-0.6300932275791787	-0.2282285843216019	2.126310375243302	-0.6092936813098483	-0.27950988383566683	2.0582131359947553	-0.5244701439424537	-9.784217887396256	1.326909934663586	9.723692477659103	-0.2910656572331202	1.9200604055635229	-0.4565082767752048	-0.23133093415343337	2.0608471977197085	-0.7100291787219389	-0.20730924793572075	1.9687187731536377	-0.7291888390083177	-0.21706276192514082	1.8799547238470855	-0.7354376019388768
7	0.23333333333333334	-0.24964982854655426	1.8932924279678771	-0.5788177449413436	-0.2644294787951619	1.8912142059913524	-0.5108415015610681	-0.2856139153089606	1.7109868074303856	-0.40207966612319435													-0.23104611054550075	1.89426856924307	-0.6480523909146986	-0.2472679511587189	1.72515970689519	-0.600410409990498	-0.21728595850439283	1.6087675146493727	-0.692668347894545										-0.244326171534071	2.0619862281765196	-0.6280893370734708	-0.2302388619976208	2.126097104516864	-0.6072183255088862	-0.2796570553916613	2.057067142285063	-0.5244638702118105	-8.427110711551524	1.417523139932425	8.263445879560143	-0.29106133946550716	1.9136800120641626	-0.4556321281663152	-0.2313779080336165	2.0608494679914244	-0.710051985058766	-0.21004039150407566	1.9687962899886953	-0.7297621392246264	-0.21706276192514082	1.8799547238470855	-0.7354376019388768
8	0.26666666666666666	-0.2503448299738801	1.8910709107795707	-0.5815372703149835	-0.26520947917869386	1.8890018586813218	-0.5135914583056165	-0.2856139153089606	1.7109868074303856	-0.40207966612319435													-0.23169961325843957	1.8925755864577545	-0.6508766282188254	-0.2472679511587189	1.72515970689519	-0.600410409990498	-0.21728595850439283	1.6087675146493727	-0.692668347894545										-0.24645054087514034	2.060800805893652	-0.6260854465677629	-0.23224913967363972	2.1258838337904264	-0.6051429697079241	-0.2798042269476558	2.0559211485753703	-0.5244575964811673	-7.070003535706789	1.5081363452012642	6.803199281461184	-0.2910570216978941	1.9072996185648023	-0.45475597955742564	-0.23142488191379962	2.0608517382631404	-0.710074791395593	-0.21277153507243057	1.9688738068237528	-0.7303354394409352	-0.21706276192514082	1.8799547238470855	-0.7354376019388768
9	0.3	-0.2510398314012059	1.8888493935912642	-0.5842567956886233	-0.26598947956222585	1.8867895113712911	-0.5163414150501648	-0.2856139153089606	1.7109868074303856	-0.40207966612319435													-0.2323531159713784	1.8908826036724389	-0.6537008655229523	-0.2472679511587189	1.72515970689519	-0.600410409990498	-0.21728595850439283	1.6087675146493727	-0.692668347894545										-0.2485749102162097	2.059615383610785	-0.624081556062055	-0.23425941734965863	2.1256705630639887	-0.6030676139069621	-0.27995139850365025	2.054775154865678	-0.5244513227505241	-5.712896359862055	1.5987495504701033	5.342952683362225	-0.29105270393028104	1.900919225065442	-0.45387983094853607	-0.23147185579398274	2.0608540085348563	-0.7100975977324201	-0.21550267864078548	1.9689513236588103	-0.7309087396572439	-0.21706276192514082	1.8799547238470855	-0.7354376019388768
